<svg width="150" height="150" viewBox="0 0 150 150" fill="none" xmlns="http://www.w3.org/2000/svg">
<path d="M80 0H70C67.2386 0 65 2.23858 65 5V60C65 62.7614 62.7614 65 60 65H5C2.23858 65 0 67.2386 0 70V80C0 82.7614 2.23858 85 5 85H60C62.7614 85 65 87.2386 65 90V145C65 147.761 67.2386 150 70 150H80C82.7614 150 85 147.761 85 145V90C85 87.2386 87.2386 85 90 85H145C147.761 85 150 82.7614 150 80V70C150 67.2386 147.761 65 145 65H90C87.2386 65 85 62.7614 85 60V5C85 2.23858 82.7614 0 80 0Z" fill="white"/>
</svg>
